<svg width="128" height="32" viewBox="0 0 128 32" fill="none" xmlns="http://www.w3.org/2000/svg">
  <defs>
    <linearGradient id="grad" x1="0" y1="0" x2="128" y2="32" gradientUnits="userSpaceOnUse">
      <stop stop-color="#8D63FF" />
      <stop offset="0.5" stop-color="#56E0FF" />
      <stop offset="1" stop-color="#7DFFB2" />
    </linearGradient>
  </defs>
  <rect x="2" y="2" width="124" height="28" rx="14" fill="rgba(9,16,36,0.6)" stroke="url(#grad)" stroke-width="2"/>
  <path d="M28.4 21.6C25.04 21.6 22.48 19.04 22.48 15.68C22.48 12.32 25.04 9.76001 28.4 9.76001C30.384 9.76001 32.048 10.592 33.312 12.064L31.248 13.792C30.464 12.896 29.536 12.448 28.48 12.448C26.688 12.448 25.296 13.92 25.296 15.68C25.296 17.44 26.688 18.912 28.48 18.912C29.6 18.912 30.576 18.4 31.344 17.456L33.456 19.216C32.16 20.768 30.416 21.6 28.4 21.6Z" fill="white"/>
  <path d="M42.32 21.6C39.12 21.6 36.64 18.976 36.64 15.68C36.64 12.384 39.12 9.76001 42.32 9.76001C44.336 9.76001 45.984 10.624 47.28 12.192L45.12 13.824C44.336 12.8 43.424 12.288 42.32 12.288C40.544 12.288 39.2 13.824 39.2 15.68C39.2 17.568 40.544 19.072 42.32 19.072C43.392 19.072 44.32 18.592 45.152 17.568L47.328 19.136C46.016 20.736 44.32 21.6 42.32 21.6Z" fill="white"/>
  <path d="M58.624 21.28H55.616L51.392 9.92001H54.272L56.96 17.504L59.648 9.92001H62.496L58.624 21.28Z" fill="white"/>
  <path d="M70.56 21.6C67.36 21.6 64.88 18.976 64.88 15.68C64.88 12.384 67.36 9.76001 70.56 9.76001C72.576 9.76001 74.224 10.624 75.52 12.192L73.36 13.824C72.576 12.8 71.664 12.288 70.56 12.288C68.784 12.288 67.44 13.824 67.44 15.68C67.44 17.568 68.784 19.072 70.56 19.072C71.632 19.072 72.56 18.592 73.392 17.568L75.568 19.136C74.256 20.736 72.56 21.6 70.56 21.6Z" fill="white"/>
  <path d="M92.224 21.28H89.184L86.688 16.288L84.192 21.28H81.12L84.928 14.528L81.568 9.92001H84.704L86.688 13.12L88.672 9.92001H91.808L88.448 14.528L92.224 21.28Z" fill="white"/>
  <path d="M99.776 21.6C96.48 21.6 93.984 18.912 93.984 15.68C93.984 12.448 96.48 9.76001 99.776 9.76001C103.104 9.76001 105.568 12.448 105.568 15.68C105.568 18.912 103.104 21.6 99.776 21.6ZM99.776 12.352C97.984 12.352 96.544 13.92 96.544 15.68C96.544 17.44 97.984 19.008 99.776 19.008C101.568 19.008 103.008 17.44 103.008 15.68C103.008 13.92 101.568 12.352 99.776 12.352Z" fill="white"/>
</svg>
