<svg width="48" height="48" viewBox="0 0 48 48" fill="none" xmlns="http://www.w3.org/2000/svg">
  <defs>
    <linearGradient id="mini" x1="6" y1="6" x2="42" y2="42" gradientUnits="userSpaceOnUse">
      <stop stop-color="#8D63FF" />
      <stop offset="0.5" stop-color="#56E0FF" />
      <stop offset="1" stop-color="#7DFFB2" />
    </linearGradient>
    <linearGradient id="glow" x1="24" y1="6" x2="24" y2="42" gradientUnits="userSpaceOnUse">
      <stop stop-color="rgba(255,255,255,0.38)" />
      <stop offset="1" stop-color="rgba(255,255,255,0)" />
    </linearGradient>
  </defs>
  <rect x="4" y="4" width="40" height="40" rx="14" fill="rgba(9,16,36,0.65)" stroke="url(#mini)" stroke-width="2" />
  <path d="M32.6 30.2C31.2 31.6 29.3667 32.3 27.1 32.3C24.1667 32.3 21.9333 31.2 20.4 29C19.8333 28.1333 19.4333 27.1333 19.2 26H22.3C22.5333 26.8333 22.9333 27.5667 23.5 28.2C24.3667 29.1333 25.5167 29.6 26.95 29.6C28.3167 29.6 29.4 29.2 30.2 28.4C31.0333 27.5667 31.45 26.5333 31.45 25.3C31.45 24.0333 31.0333 22.9667 30.2 22.1C29.3667 21.2 28.2667 20.75 26.9 20.75C25.5333 20.75 24.4 21.1333 23.5 21.9V18.4H32.8V16H20.2V24.5C20.2 26.4667 20.7667 28.1 21.9 29.4C23.6333 31.4 25.9 32.4 28.7 32.4C31.4333 32.4 33.7 31.4 35.5 29.4L32.6 30.2Z" fill="white"/>
  <path d="M14 24C14 18.4772 18.4772 14 24 14" stroke="url(#glow)" stroke-width="2.4" stroke-linecap="round"/>
</svg>
