<svg width="427" height="90" viewBox="0 0 427 90" fill="none" xmlns="http://www.w3.org/2000/svg">
<path fill-rule="evenodd" clip-rule="evenodd" d="M236.825 14.8048C240.456 11.9587 247.304 13.2158 248.099 18.3515C248.424 19.9841 248.374 21.7071 248.384 23.3799C248.333 35.8068 248.531 55.4009 248.323 68.9843C248.256 71.7969 247.301 74.6899 244.445 75.7894C241.689 76.8588 238.086 76.537 236.128 74.3412C235.31 73.416 234.83 72.1891 234.596 70.8482C233.862 55.9104 234.525 39.1893 234.314 24.094C234.354 20.9428 234.204 17.0173 236.788 14.8417L236.832 14.8048H236.825Z" fill="black"/>
<path fill-rule="evenodd" clip-rule="evenodd" d="M332.365 14.8048C335.995 11.9587 342.844 13.2158 343.639 18.3515C343.964 19.9841 343.913 21.7071 343.924 23.3799C343.873 35.8068 344.071 55.4009 343.863 68.9843C343.796 71.7969 342.841 74.6899 339.985 75.7894C337.229 76.8588 333.625 76.537 331.668 74.3412C330.85 73.416 330.37 72.1891 330.136 70.8482C329.401 55.9104 330.065 39.1893 329.854 24.094C329.894 20.9428 329.743 17.0173 332.328 14.8417L332.372 14.8048H332.365Z" fill="black"/>
<path fill-rule="evenodd" clip-rule="evenodd" d="M426.162 75.7258C423.865 78.7764 416.175 77.9115 413.353 75.7057C410.503 73.7446 408.619 70.1275 406.739 66.8255C404.097 62.1189 401.449 57.4223 398.774 52.7258C396.477 48.5992 393.249 43.4702 389.029 49.0919C385.234 54.6768 382.227 60.7914 378.831 66.6277C375.12 73.4529 372.116 77.9852 363.836 77.7036C360.021 77.6668 356.418 76.3828 358.077 71.9008C366.722 54.7271 377.004 38.301 386.3 21.4491C387.145 19.9808 388.083 18.3247 389.139 17.0878C393.102 12.3141 396.199 17.6979 398.17 21.2479C407.104 37.1645 416.031 53.0812 425.029 68.9542C425.548 69.9364 426.021 70.922 426.326 71.8472C426.836 73.3758 426.849 74.7201 426.192 75.6889L426.168 75.7258H426.162Z" fill="black"/>
<path fill-rule="evenodd" clip-rule="evenodd" d="M217.576 39.927C214.184 14.7816 188.066 10.5242 165.586 13.2395C162.897 13.7658 160.98 14.4564 159.689 16.5516C158.04 19.4513 158.603 24.3791 158.442 28.3684C158.419 35.8808 158.549 43.4905 158.583 51.1839C158.854 54.6167 157.644 63.1683 161.372 61.6498C166.494 58.8204 172.166 50.9728 172.515 44.3989C173.4 39.0152 171.238 31.8983 175.301 27.6107C177.808 25.1334 183.718 25.1301 187.597 26.0486C197.479 27.7851 205.092 37.0172 203.537 47.131C202.823 52.659 199.796 57.7879 195.015 60.8217C190.802 63.6377 183.252 64.0835 182.84 69.9433C182.803 72.5111 184.744 74.7505 187.282 75.6388C189.799 76.4869 192.847 75.7897 195.424 75.0253C210.275 70.835 220.362 55.4212 217.59 40.0041L217.58 39.9304L217.576 39.927Z" fill="black"/>
<path fill-rule="evenodd" clip-rule="evenodd" d="M268.672 88.9707C265.795 90.1541 261.94 90.1876 259.108 89.7183C257.938 89.497 256.5 89.259 255.822 88.2265C255.521 87.6901 255.625 87.0197 255.987 86.2353C265.189 70.9153 295.862 19.5752 305.865 3.98378C307.243 1.61037 309.378 0.504118 312.117 0.219174C314.779 -0.142872 318.56 -0.0724723 320.609 0.551051C323.518 1.34219 322.861 3.491 321.608 5.5627C319.64 8.9418 317.058 13.2629 314.098 18.174C301.859 38.4821 286.489 63.3627 274.485 83.2048C273.07 85.6017 271.407 87.898 268.719 88.9472L268.668 88.9674L268.672 88.9707Z" fill="black"/>
<path fill-rule="evenodd" clip-rule="evenodd" d="M301.682 75.3002C304.615 76.5472 308.557 76.5539 311.48 76.0745C312.657 75.8466 314.129 75.5751 314.719 74.4554C315.185 73.4698 314.434 72.0317 313.83 71.0059C306.388 58.7634 288.356 29.3002 280.68 17.1449C279.154 15.0262 277.14 14.1546 274.418 13.7658C271.561 13.4138 268.072 13.2428 265.38 14.3591C262.447 15.8677 265.004 18.9585 266.412 21.5665C267.261 23.008 268.102 24.416 268.97 25.8641C271.303 29.7427 273.995 34.1376 276.818 38.7067C283.05 48.7971 290.287 60.3423 296.171 69.9566C297.525 72.1725 299.167 74.2643 301.631 75.2801L301.682 75.3035V75.3002Z" fill="black"/>
<path d="M48.9099 52.7325C45.628 54.1337 42.6478 55.9708 39.6274 57.7743C36.7813 59.608 33.4961 61.5691 31.5719 64.1001C27.824 68.9374 29.5974 74.4351 36.0405 74.177C43.2512 73.7244 51.2497 69.1151 56.2346 63.8084C58.8963 60.8148 63.4688 55.4948 60.7836 52.3872C57.6794 49.6719 52.5504 51.2944 48.9769 52.699L48.9099 52.7258V52.7325Z" fill="black"/>
<path d="M45.675 14.0573C24.1064 4.40943 -1.09935 22.4916 0.0370761 45.562C0.32202 52.3034 2.63173 59.1287 6.60418 64.5459C7.90486 66.2724 9.31282 67.4389 10.8683 67.62C13.6238 67.9787 16.4968 65.5415 17.4756 62.7893C19.1484 58.7029 17.3181 54.8444 15.9436 50.7379C12.0483 39.2765 19.6982 27.5603 31.6826 26.4205C35.8226 26.0048 39.7951 27.5267 43.677 28.757C47.9076 30.0812 55.9128 32.049 58.8796 28.1268C61.5513 23.3632 49.6374 15.4686 45.742 14.0875L45.675 14.0606V14.0573Z" fill="black"/>
<path d="M109.167 13.5544C127.729 13.36 141.818 28.0061 141.51 45.6424C141.218 62.4306 127.464 76.6543 109.928 76.5068C92.6805 76.3593 77.9741 62.1792 78.5373 43.9528C78.9965 29.1023 91.4167 13.9634 109.164 13.5544H109.167ZM109.851 62.8932C119.251 63.1715 128.003 54.8947 127.906 44.573C127.829 36.1186 120.628 26.4975 108.808 27.0473C99.8175 27.4664 92.0335 35.7431 92.1173 44.6736C92.2179 55.3942 100.76 63.0776 109.851 62.8932Z" fill="black"/>
</svg>
