<svg width="346" height="73" viewBox="0 0 346 73" fill="none" xmlns="http://www.w3.org/2000/svg">
<path fill-rule="evenodd" clip-rule="evenodd" d="M192.036 12.0049C194.98 9.69709 200.534 10.7164 201.178 14.8809C201.442 16.2047 201.401 17.6019 201.409 18.9583C201.368 29.035 201.529 44.9234 201.36 55.9379C201.306 58.2186 200.531 60.5644 198.215 61.456C195.981 62.3232 193.059 62.0622 191.471 60.2817C190.808 59.5315 190.419 58.5366 190.229 57.4493C189.633 45.3366 190.172 31.7778 190 19.5373C190.033 16.9821 189.911 13.799 192.007 12.0348L192.042 12.0049H192.036Z" fill="white"/>
<path fill-rule="evenodd" clip-rule="evenodd" d="M269.508 12.0049C272.452 9.69709 278.005 10.7164 278.649 14.8809C278.913 16.2047 278.872 17.6019 278.88 18.9583C278.84 29.035 279 44.9234 278.831 55.9379C278.777 58.2186 278.002 60.5644 275.686 61.456C273.452 62.3232 270.53 62.0622 268.942 60.2817C268.279 59.5315 267.89 58.5366 267.7 57.4493C267.105 45.3366 267.643 31.7778 267.472 19.5373C267.504 16.9821 267.382 13.799 269.478 12.0348L269.513 12.0049H269.508Z" fill="white"/>
<path fill-rule="evenodd" clip-rule="evenodd" d="M345.566 61.4045C343.703 63.8781 337.468 63.1768 335.179 61.3882C332.868 59.798 331.341 56.865 329.816 54.1874C327.674 50.371 325.526 46.5626 323.357 42.7543C321.495 39.4081 318.877 35.2491 315.455 39.8077C312.378 44.3364 309.94 49.2945 307.186 54.0271C304.177 59.5615 301.741 63.2366 295.027 63.0083C291.934 62.9784 289.011 61.9373 290.357 58.3029C297.367 44.3771 305.704 31.0575 313.242 17.3927C313.927 16.2021 314.688 14.8592 315.545 13.8562C318.758 9.98533 321.269 14.3509 322.868 17.2296C330.112 30.136 337.351 43.0425 344.647 55.9136C345.068 56.71 345.451 57.5092 345.699 58.2594C346.112 59.499 346.123 60.589 345.59 61.3746L345.571 61.4045H345.566Z" fill="white"/>
<path fill-rule="evenodd" clip-rule="evenodd" d="M176.428 32.376C173.677 11.9861 152.499 8.53389 134.27 10.7357C132.09 11.1625 130.535 11.7224 129.489 13.4214C128.151 15.7727 128.608 19.7686 128.477 23.0033C128.458 29.095 128.564 35.2655 128.592 41.504C128.812 44.2876 127.83 51.2219 130.853 49.9905C135.007 47.6963 139.606 41.3328 139.889 36.0022C140.606 31.6366 138.853 25.8657 142.148 22.389C144.181 20.3802 148.973 20.3775 152.118 21.1223C160.132 22.5304 166.305 30.0165 165.044 38.2176C164.465 42.7001 162.01 46.8591 158.134 49.3191C154.717 51.6025 148.595 51.964 148.261 56.7156C148.231 58.7978 149.805 60.6136 151.863 61.3339C153.904 62.0217 156.375 61.4563 158.466 60.8365C170.508 57.4386 178.687 44.9399 176.439 32.4385L176.431 32.3787L176.428 32.376Z" fill="white"/>
<path fill-rule="evenodd" clip-rule="evenodd" d="M217.86 72.1444C215.528 73.104 212.402 73.1312 210.105 72.7506C209.156 72.5712 207.99 72.3782 207.441 71.541C207.196 71.1061 207.281 70.5624 207.574 69.9263C215.036 57.5037 239.908 15.8731 248.02 3.23037C249.137 1.30582 250.868 0.408778 253.089 0.177724C255.248 -0.115852 258.314 -0.0587662 259.975 0.446836C262.334 1.08835 261.801 2.83078 260.785 4.51068C259.189 7.25071 257.096 10.7546 254.696 14.7369C244.771 31.2043 232.308 51.3794 222.574 67.469C221.427 69.4126 220.078 71.2746 217.898 72.1254L217.858 72.1417L217.86 72.1444Z" fill="white"/>
<path fill-rule="evenodd" clip-rule="evenodd" d="M244.627 61.0592C247.006 62.0704 250.202 62.0759 252.573 61.6871C253.527 61.5023 254.72 61.2821 255.199 60.3742C255.577 59.575 254.968 58.4089 254.478 57.5771C248.444 47.6499 233.822 23.7588 227.597 13.9023C226.36 12.1844 224.727 11.4776 222.519 11.1623C220.203 10.8769 217.374 10.7382 215.191 11.6434C212.812 12.8667 214.886 15.3729 216.028 17.4878C216.716 18.6566 217.398 19.7983 218.102 20.9726C219.994 24.1177 222.177 27.6813 224.466 31.3864C229.519 39.5684 235.388 48.9302 240.158 56.7263C241.257 58.523 242.589 60.2193 244.586 61.0429L244.627 61.0619V61.0592Z" fill="white"/>
<path d="M39.66 42.7597C36.9988 43.8959 34.5822 45.3855 32.1331 46.848C29.8252 48.3349 27.1613 49.9251 25.601 51.9774C22.562 55.8999 23.9999 60.3579 29.2245 60.1486C35.0715 59.7816 41.5574 56.044 45.5995 51.7409C47.7578 49.3135 51.4655 44.9995 49.2882 42.4797C46.7711 40.2779 42.6121 41.5935 39.7144 42.7325L39.66 42.7542V42.7597Z" fill="white"/>
<path d="M37.0369 11.3987C19.5474 3.57546 -0.891436 18.2379 0.0300642 36.9452C0.261119 42.4117 2.13402 47.9461 5.35519 52.3389C6.40989 53.7388 7.55157 54.6847 8.81285 54.8315C11.0473 55.1224 13.3769 53.1462 14.1706 50.9145C15.527 47.6009 14.0428 44.4721 12.9283 41.1422C9.7697 31.8484 15.9728 22.348 25.6907 21.4238C29.0478 21.0867 32.269 22.3208 35.4168 23.3184C38.8472 24.3921 45.3385 25.9878 47.7442 22.8074C49.9107 18.9447 40.2499 12.5431 37.0912 11.4232L37.0369 11.4014V11.3987Z" fill="white"/>
<path d="M88.5213 10.9911C103.572 10.8334 114.997 22.7096 114.747 37.0105C114.511 50.6237 103.358 62.1574 89.1383 62.0378C75.1527 61.9182 63.2276 50.4198 63.6843 35.6405C64.0567 23.5985 74.1279 11.3227 88.5186 10.9911H88.5213ZM89.0758 50.9988C96.6979 51.2245 103.795 44.513 103.717 36.1434C103.654 29.2879 97.8151 21.4864 88.2304 21.9322C80.94 22.272 74.6281 28.9834 74.6961 36.2249C74.7776 44.918 81.7038 51.1483 89.0758 50.9988Z" fill="white"/>
</svg>
