<svg width="335" height="75" viewBox="0 0 335 75" fill="none" xmlns="http://www.w3.org/2000/svg">
<path fill-rule="evenodd" clip-rule="evenodd" d="M192.036 12.3374C194.98 9.96571 200.534 11.0133 201.178 15.293C201.442 16.6535 201.401 18.0894 201.409 19.4834C201.368 29.8391 201.529 46.1675 201.36 57.487C201.306 59.8308 200.531 62.2417 198.215 63.158C195.981 64.0491 193.059 63.7809 191.471 61.9512C190.808 61.1801 190.419 60.1577 190.229 59.0403C189.633 46.5921 190.172 32.6578 190 20.0784C190.033 17.4525 189.911 14.1812 192.007 12.3682L192.042 12.3374H192.036Z" fill="black"/>
<path fill-rule="evenodd" clip-rule="evenodd" d="M269.508 12.3374C272.452 9.96571 278.005 11.0133 278.649 15.293C278.913 16.6535 278.872 18.0894 278.88 19.4834C278.84 29.8391 279 46.1675 278.831 57.487C278.777 59.8308 278.002 62.2417 275.686 63.158C273.452 64.0491 270.53 63.7809 268.942 61.9512C268.279 61.1801 267.89 60.1577 267.7 59.0403C267.105 46.5921 267.643 32.6578 267.472 20.0784C267.504 17.4525 267.382 14.1812 269.478 12.3682L269.513 12.3374H269.508Z" fill="black"/>
<path fill-rule="evenodd" clip-rule="evenodd" d="M176.428 33.2725C173.677 12.318 152.499 8.77016 134.27 11.0329C132.09 11.4715 130.535 12.047 129.489 13.793C128.151 16.2094 128.608 20.316 128.477 23.6403C128.458 29.9007 128.564 36.2421 128.592 42.6533C128.812 45.5139 127.83 52.6403 130.853 51.3748C135.007 49.017 139.606 42.4773 139.889 36.9991C140.606 32.5127 138.853 26.5819 142.148 23.009C144.181 20.9445 148.973 20.9417 152.118 21.7072C160.132 23.1542 166.305 30.8477 165.044 39.2759C164.465 43.8825 162.01 48.1566 158.134 50.6848C154.717 53.0314 148.595 53.4029 148.261 58.2861C148.231 60.4259 149.805 62.2921 151.863 63.0323C153.904 63.7391 156.375 63.1581 158.466 62.5211C170.508 59.0292 178.687 46.1844 176.439 33.3368L176.431 33.2753L176.428 33.2725Z" fill="black"/>
<path fill-rule="evenodd" clip-rule="evenodd" d="M217.86 74.1423C215.528 75.1284 212.402 75.1563 210.105 74.7652C209.156 74.5809 207.99 74.3825 207.441 73.5221C207.196 73.0751 207.281 72.5164 207.574 71.8627C215.036 59.0961 239.908 16.3127 248.02 3.31982C249.137 1.34198 250.868 0.420098 253.089 0.182645C255.248 -0.11906 258.314 -0.0603936 259.975 0.459209C262.334 1.11849 261.801 2.90916 260.785 4.63559C259.189 7.4515 257.096 11.0524 254.696 15.145C244.771 32.0684 232.308 52.8022 222.574 69.3373C221.427 71.3347 220.078 73.2483 217.898 74.1227L217.858 74.1395L217.86 74.1423Z" fill="black"/>
<path fill-rule="evenodd" clip-rule="evenodd" d="M244.627 62.7499C247.006 63.7891 250.202 63.7947 252.573 63.3952C253.527 63.2052 254.72 62.979 255.199 62.0459C255.577 61.2246 254.968 60.0262 254.478 59.1713C248.444 48.9692 233.822 24.4166 227.597 14.2871C226.36 12.5216 224.727 11.7953 222.519 11.4712C220.203 11.1779 217.374 11.0354 215.191 11.9657C212.812 13.2228 214.886 15.7985 216.028 17.9719C216.716 19.1731 217.398 20.3464 218.102 21.5532C219.994 24.7854 222.177 28.4477 224.466 32.2553C229.519 40.664 235.388 50.285 240.158 58.297C241.257 60.1435 242.589 61.8867 244.586 62.7331L244.627 62.7527V62.7499Z" fill="black"/>
<path d="M39.66 43.9435C36.9988 45.1112 34.5822 46.642 32.1331 48.145C29.8252 49.6731 27.1613 51.3073 25.601 53.4164C22.562 57.4475 23.9999 62.029 29.2245 61.8139C35.0715 61.4368 41.5574 57.5956 45.5995 53.1734C47.7578 50.6787 51.4655 46.2454 49.2882 43.6557C46.7711 41.3929 42.6121 42.745 39.7144 43.9155L39.66 43.9379V43.9435Z" fill="black"/>
<path d="M37.0369 11.7144C19.5474 3.67448 -0.891436 18.743 0.0300642 37.9683C0.261119 43.5861 2.13402 49.2738 5.35519 53.7882C6.40989 55.2269 7.55157 56.1991 8.81285 56.3499C11.0473 56.6488 13.3769 54.6179 14.1706 52.3244C15.527 48.919 14.0428 45.7037 12.9283 42.2815C9.7697 32.7303 15.9728 22.9668 25.6907 22.017C29.0478 21.6706 32.269 22.9389 35.4168 23.9641C38.8472 25.0676 45.3385 26.7074 47.7442 23.4389C49.9107 19.4693 40.2499 12.8905 37.0912 11.7395L37.0369 11.7172V11.7144Z" fill="black"/>
<path d="M88.5213 11.2955C103.572 11.1335 114.997 23.3386 114.747 38.0355C114.511 52.0257 103.358 63.8788 89.1383 63.7559C75.1527 63.633 63.2276 51.8162 63.6843 36.6276C64.0567 24.2521 74.1279 11.6364 88.5186 11.2955H88.5213ZM89.0758 52.4112C96.6979 52.6431 103.795 45.7458 103.717 37.1444C103.654 30.099 97.8151 22.0815 88.2304 22.5396C80.94 22.8888 74.6281 29.7861 74.6961 37.2282C74.7776 46.162 81.7038 52.5649 89.0758 52.4112Z" fill="black"/>
<path d="M295.018 61.6616C294.643 61.6616 300.928 34.4108 304.08 20.8464C305.1 16.4591 309.01 13.3601 313.515 13.3601C317.983 13.3601 321.872 16.408 322.919 20.7525C326.18 34.2845 332.686 61.6616 331.935 61.6616C329.914 61.6616 328.175 60.2327 327.783 58.2502L326.178 50.1283C325.622 47.3175 323.157 45.2917 320.292 45.2917H306.661C303.795 45.2917 301.33 47.3175 300.774 50.1283L299.169 58.2501C298.777 60.2327 297.038 61.6616 295.018 61.6616ZM304.62 35.6351C303.864 38.7797 306.247 41.8037 309.481 41.8037H317.471C320.705 41.8037 323.088 38.7797 322.333 35.6351L319.393 23.4053C318.735 20.6703 316.289 18.7423 313.476 18.7423C310.663 18.7423 308.217 20.6703 307.56 23.4053L304.62 35.6351Z" fill="black"/>
<path d="M313.514 10.6599C319.224 10.6599 324.203 14.5566 325.543 20.1199C327.175 26.8884 329.621 37.1298 331.565 45.6833C332.536 49.9561 333.387 53.8292 333.95 56.6433C334.229 58.042 334.446 59.222 334.569 60.071C334.628 60.4787 334.679 60.8989 334.692 61.2556C334.697 61.4035 334.705 61.7211 334.64 62.072C334.612 62.225 334.529 62.6334 334.256 63.0701C333.944 63.5714 333.187 64.362 331.935 64.3621C328.625 64.3621 325.776 62.0207 325.134 58.7732L323.529 50.6521C323.223 49.1061 321.867 47.9919 320.292 47.9919H306.661C305.085 47.9919 303.729 49.1061 303.423 50.6521L301.818 58.7732C301.176 62.0207 298.327 64.3621 295.017 64.3621C293.786 64.3619 293.042 63.59 292.737 63.113C292.469 62.6949 292.385 62.3078 292.358 62.1736C292.296 61.8631 292.301 61.6038 292.302 61.531C292.306 61.3257 292.329 61.1286 292.345 61.0066C292.381 60.729 292.442 60.3711 292.515 59.9753C292.664 59.1672 292.897 58.0209 293.191 56.6326C293.781 53.8479 294.632 50.0034 295.592 45.7468C297.513 37.2296 299.874 27.0185 301.451 20.2351C302.755 14.622 307.757 10.6601 313.514 10.6599ZM313.515 13.3601C309.01 13.3601 305.1 16.4591 304.08 20.8464L301.282 32.946C298.267 46.0504 294.882 61.0156 295.004 61.6414L295.018 61.6616C296.975 61.6616 298.668 60.3206 299.128 58.4343L299.169 58.2501L300.774 50.1283C301.313 47.4054 303.643 45.4191 306.393 45.2976L306.661 45.2917H320.292C323.157 45.2917 325.622 47.3175 326.178 50.1283L327.783 58.2502C328.163 60.1709 329.807 61.5714 331.747 61.657L331.935 61.6616C332.591 61.6578 327.693 40.6995 324.274 26.3953L322.919 20.7525C321.872 16.408 317.983 13.3601 313.515 13.3601ZM317.471 39.1033L317.471 41.8037H309.481L309.481 39.1033H317.471ZM313.476 18.7423C316.289 18.7423 318.735 20.6703 319.393 23.4053L322.333 35.6351C323.088 38.7797 320.705 41.8037 317.471 41.8037L317.471 39.1033C318.959 39.1032 320.055 37.7127 319.708 36.2664L316.768 24.0359C316.402 22.5146 315.041 21.4421 313.476 21.4421C311.911 21.4422 310.551 22.5147 310.185 24.0359L307.245 36.2664C306.897 37.7126 307.994 39.103 309.481 39.1033L309.481 41.8037C306.348 41.8035 304.014 38.9656 304.558 35.9294L304.62 35.6351L307.56 23.4053C308.217 20.6703 310.663 18.7423 313.476 18.7423Z" fill="black"/>
</svg>
