<svg width="46" height="51" viewBox="0 0 46 51" fill="none" xmlns="http://www.w3.org/2000/svg">
<path d="M26.0196 0.00377077C30.2776 0.0392544 34.3583 1.12382 38.0486 3.16027C40.4614 4.45311 42.8003 6.21495 41.6818 9.17861C40.7037 11.7072 38.4512 13.7159 35.8193 14.3376C33.5252 14.9239 31.1123 14.3978 28.8182 13.9674C27.0286 13.6341 25.1911 13.4999 23.4015 13.8563C17.1117 14.9439 12.5512 21.5315 13.7515 27.7828C14.0909 29.7761 14.9364 31.6922 15.5643 33.613C16.2709 35.7281 16.6149 37.9373 16.493 40.1605C16.331 44.9153 13.355 49.3831 8.73136 45.1621C-2.86717 35.0678 -2.93351 16.5114 8.67119 6.49419C13.4198 2.2593 19.6387 -0.0826242 25.9872 0.00222801H26.0181L26.0196 0.00377077Z" fill="black"/>
<path d="M25.8685 50.9967C22.8401 50.8517 22.0888 48.4604 22.6287 45.8316C23.3893 42.0333 26.7217 39.0789 30.1744 37.4019C34.4232 35.4241 40.2163 34.9335 44.1503 37.6071C46.7746 39.4769 46.014 41.6923 43.8973 43.6763C41.5955 45.9627 38.8093 47.8603 35.8348 49.1038C32.7138 50.3766 29.3182 51.0369 25.8994 50.9983H25.8685V50.9967Z" fill="black"/>
</svg>
